<mxfile host="app.diagrams.net" modified="2023-11-29T16:47:23.886Z" agent="Mozilla/5.0 (X11; Linux x86_64; rv:109.0) Gecko/20100101 Firefox/119.0" etag="yj6SBKEKUbP4YZe7yeTd" version="22.1.4" type="github">
  <diagram name="Page-1" id="QnFqFEfZWXVsGcKvMmii">
    <mxGraphModel dx="2310" dy="2985" grid="1" gridSize="10" guides="1" tooltips="1" connect="1" arrows="1" fold="1" page="1" pageScale="1" pageWidth="850" pageHeight="1100" math="0" shadow="0">
      <root>
        <mxCell id="0" />
        <mxCell id="1" parent="0" />
        <mxCell id="AwBOlusgZ-eaemERiSeo-20" value="" style="rounded=1;whiteSpace=wrap;html=1;fillColor=none;" vertex="1" parent="1">
          <mxGeometry x="-510" y="-1250" width="2640" height="1310" as="geometry" />
        </mxCell>
        <mxCell id="9caDIlOXdyggSRcv9oSJ-1" value="" style="rounded=1;whiteSpace=wrap;html=1;fillColor=none;" parent="1" vertex="1">
          <mxGeometry x="-485" y="70" width="2600" height="660" as="geometry" />
        </mxCell>
        <mxCell id="9caDIlOXdyggSRcv9oSJ-2" value="" style="rounded=1;whiteSpace=wrap;html=1;fillColor=none;" parent="1" vertex="1">
          <mxGeometry x="-485" y="750" width="2610" height="510" as="geometry" />
        </mxCell>
        <mxCell id="9caDIlOXdyggSRcv9oSJ-3" style="edgeStyle=orthogonalEdgeStyle;rounded=0;orthogonalLoop=1;jettySize=auto;html=1;entryX=0;entryY=0.75;entryDx=0;entryDy=0;" parent="1" source="9caDIlOXdyggSRcv9oSJ-5" target="9caDIlOXdyggSRcv9oSJ-8" edge="1">
          <mxGeometry relative="1" as="geometry" />
        </mxCell>
        <mxCell id="9caDIlOXdyggSRcv9oSJ-4" value="map of apparent conductivity&lt;br&gt;(EarthModel.apparentCondMap)" style="edgeLabel;html=1;align=center;verticalAlign=middle;resizable=0;points=[];" parent="9caDIlOXdyggSRcv9oSJ-3" connectable="0" vertex="1">
          <mxGeometry x="-0.1804" y="3" relative="1" as="geometry">
            <mxPoint x="9" y="3" as="offset" />
          </mxGeometry>
        </mxCell>
        <mxCell id="9caDIlOXdyggSRcv9oSJ-5" value="GCmodel.getImpedanceMap:&lt;br&gt;Global conductivity data" style="rounded=0;whiteSpace=wrap;html=1;" parent="1" vertex="1">
          <mxGeometry x="390.82" y="-80" width="200" height="60" as="geometry" />
        </mxCell>
        <mxCell id="9caDIlOXdyggSRcv9oSJ-6" style="edgeStyle=orthogonalEdgeStyle;rounded=0;orthogonalLoop=1;jettySize=auto;html=1;entryX=0;entryY=0.25;entryDx=0;entryDy=0;" parent="1" source="9caDIlOXdyggSRcv9oSJ-8" target="9caDIlOXdyggSRcv9oSJ-29" edge="1">
          <mxGeometry relative="1" as="geometry">
            <Array as="points">
              <mxPoint x="1250" y="-75" />
              <mxPoint x="1250" y="191" />
            </Array>
          </mxGeometry>
        </mxCell>
        <mxCell id="9caDIlOXdyggSRcv9oSJ-7" value="horizontal E field in each region&lt;br&gt;(network.EfieldFiles)" style="edgeLabel;html=1;align=center;verticalAlign=middle;resizable=0;points=[];" parent="9caDIlOXdyggSRcv9oSJ-6" connectable="0" vertex="1">
          <mxGeometry x="-0.5725" relative="1" as="geometry">
            <mxPoint x="14" as="offset" />
          </mxGeometry>
        </mxCell>
        <mxCell id="9caDIlOXdyggSRcv9oSJ-8" value="EarthModel.calcRegionEfields" style="rounded=0;whiteSpace=wrap;html=1;" parent="1" vertex="1">
          <mxGeometry x="789.82" y="-90" width="200" height="60" as="geometry" />
        </mxCell>
        <mxCell id="9caDIlOXdyggSRcv9oSJ-9" style="edgeStyle=orthogonalEdgeStyle;rounded=0;orthogonalLoop=1;jettySize=auto;html=1;entryX=0;entryY=0.5;entryDx=0;entryDy=0;" parent="1" source="9caDIlOXdyggSRcv9oSJ-11" target="9caDIlOXdyggSRcv9oSJ-14" edge="1">
          <mxGeometry relative="1" as="geometry" />
        </mxCell>
        <mxCell id="9caDIlOXdyggSRcv9oSJ-10" style="edgeStyle=orthogonalEdgeStyle;rounded=0;orthogonalLoop=1;jettySize=auto;html=1;exitX=0;exitY=0.5;exitDx=0;exitDy=0;" parent="1" source="9caDIlOXdyggSRcv9oSJ-11" edge="1">
          <mxGeometry relative="1" as="geometry">
            <mxPoint x="359.94" y="-864" as="targetPoint" />
          </mxGeometry>
        </mxCell>
        <mxCell id="9caDIlOXdyggSRcv9oSJ-11" value="&lt;div&gt;EarthModel.calcAndSaveEfields&lt;/div&gt;&lt;div&gt;(On a 1 minute basis)&lt;br&gt;&lt;/div&gt;" style="rounded=0;whiteSpace=wrap;html=1;" parent="1" vertex="1">
          <mxGeometry x="359.94" y="-892" width="190" height="60" as="geometry" />
        </mxCell>
        <mxCell id="9caDIlOXdyggSRcv9oSJ-12" style="edgeStyle=orthogonalEdgeStyle;rounded=0;orthogonalLoop=1;jettySize=auto;html=1;exitX=1;exitY=0.75;exitDx=0;exitDy=0;entryX=0;entryY=0.5;entryDx=0;entryDy=0;" parent="1" source="9caDIlOXdyggSRcv9oSJ-14" target="9caDIlOXdyggSRcv9oSJ-16" edge="1">
          <mxGeometry relative="1" as="geometry">
            <Array as="points">
              <mxPoint x="794.94" y="-854" />
              <mxPoint x="989.94" y="-854" />
              <mxPoint x="989.94" y="-769" />
            </Array>
          </mxGeometry>
        </mxCell>
        <mxCell id="9caDIlOXdyggSRcv9oSJ-13" value="&lt;div&gt;counts of efield per year&amp;nbsp;&lt;/div&gt;&lt;div&gt;at each duration&amp;nbsp;&lt;/div&gt;&lt;div&gt;of sustained E field&lt;/div&gt;(EfieldRatesPerYear npy file)&lt;br&gt;(MTsites.windowedCounts)" style="edgeLabel;html=1;align=center;verticalAlign=middle;resizable=0;points=[];" parent="9caDIlOXdyggSRcv9oSJ-12" connectable="0" vertex="1">
          <mxGeometry x="-0.1876" y="1" relative="1" as="geometry">
            <mxPoint x="-86" y="-56" as="offset" />
          </mxGeometry>
        </mxCell>
        <mxCell id="9caDIlOXdyggSRcv9oSJ-14" value="EarthModel.calcAndSaveRecurrence&lt;br&gt;MTsite.SaveERatesPerYear" style="rounded=0;whiteSpace=wrap;html=1;" parent="1" vertex="1">
          <mxGeometry x="589.94" y="-884" width="225" height="60" as="geometry" />
        </mxCell>
        <mxCell id="9caDIlOXdyggSRcv9oSJ-15" value="Each MTsite&#39;s rate per year of E field level adjusted by TFsite ground conductivity&lt;br&gt;(refcumsum&lt;br&gt;refCounts&lt;br&gt;refEfields)" style="edgeStyle=orthogonalEdgeStyle;rounded=0;orthogonalLoop=1;jettySize=auto;html=1;entryX=0;entryY=0.5;entryDx=0;entryDy=0;" parent="1" source="9caDIlOXdyggSRcv9oSJ-16" target="9caDIlOXdyggSRcv9oSJ-22" edge="1">
          <mxGeometry x="-0.0315" relative="1" as="geometry">
            <Array as="points">
              <mxPoint x="1354.95" y="-440" />
              <mxPoint x="1354.95" y="-370" />
              <mxPoint x="204.95" y="-370" />
              <mxPoint x="204.95" y="-290" />
            </Array>
            <mxPoint as="offset" />
          </mxGeometry>
        </mxCell>
        <mxCell id="9caDIlOXdyggSRcv9oSJ-16" value="EarthModel.calcReferenceRateperyear&lt;br&gt;TFsite.getApparentcCloseToWindowPeriod&lt;br&gt;EarthModel.adjustEfieldsToRefCond&lt;br&gt;Fits.FitPower&lt;br&gt;&lt;div&gt;Fits.fitLognormalCDF&lt;/div&gt;" style="rounded=0;whiteSpace=wrap;html=1;" parent="1" vertex="1">
          <mxGeometry x="1064.95" y="-500" width="280" height="90" as="geometry" />
        </mxCell>
        <mxCell id="9caDIlOXdyggSRcv9oSJ-17" style="edgeStyle=orthogonalEdgeStyle;rounded=0;orthogonalLoop=1;jettySize=auto;html=1;entryX=0;entryY=0.25;entryDx=0;entryDy=0;" parent="1" source="9caDIlOXdyggSRcv9oSJ-19" edge="1" target="9caDIlOXdyggSRcv9oSJ-48">
          <mxGeometry relative="1" as="geometry">
            <Array as="points">
              <mxPoint x="1660" y="-860" />
              <mxPoint x="1660" y="410" />
              <mxPoint x="870" y="410" />
              <mxPoint x="870" y="445" />
              <mxPoint x="905" y="445" />
            </Array>
            <mxPoint x="889.94" y="142" as="targetPoint" />
          </mxGeometry>
        </mxCell>
        <mxCell id="9caDIlOXdyggSRcv9oSJ-18" value="Ratio of Peak Field to 60 Second Peak Field as &lt;br&gt;a function of windowed average duration&lt;br&gt;&lt;br&gt;(EarthModel.averagedRatios)" style="edgeLabel;html=1;align=center;verticalAlign=middle;resizable=0;points=[];" parent="9caDIlOXdyggSRcv9oSJ-17" connectable="0" vertex="1">
          <mxGeometry x="-0.7525" relative="1" as="geometry">
            <mxPoint x="-90" y="-4" as="offset" />
          </mxGeometry>
        </mxCell>
        <mxCell id="9caDIlOXdyggSRcv9oSJ-19" value="EarthModel.peakEvsDuration" style="rounded=0;whiteSpace=wrap;html=1;" parent="1" vertex="1">
          <mxGeometry x="1086" y="-884" width="190" height="60" as="geometry" />
        </mxCell>
        <mxCell id="9caDIlOXdyggSRcv9oSJ-20" style="edgeStyle=orthogonalEdgeStyle;rounded=0;orthogonalLoop=1;jettySize=auto;html=1;entryX=0;entryY=0.5;entryDx=0;entryDy=0;" parent="1" source="9caDIlOXdyggSRcv9oSJ-22" target="9caDIlOXdyggSRcv9oSJ-24" edge="1">
          <mxGeometry relative="1" as="geometry" />
        </mxCell>
        <mxCell id="9caDIlOXdyggSRcv9oSJ-21" value="&lt;div&gt;A list of the different fits&lt;/div&gt;&lt;div&gt;&amp;nbsp;at the different sites&lt;/div&gt;(EarthMdoel.combinedpowerfits)" style="edgeLabel;html=1;align=center;verticalAlign=middle;resizable=0;points=[];" parent="9caDIlOXdyggSRcv9oSJ-20" connectable="0" vertex="1">
          <mxGeometry x="-0.106" y="-1" relative="1" as="geometry">
            <mxPoint as="offset" />
          </mxGeometry>
        </mxCell>
        <mxCell id="9caDIlOXdyggSRcv9oSJ-22" value="EarthModel.calcCombinedRates" style="rounded=0;whiteSpace=wrap;html=1;" parent="1" vertex="1">
          <mxGeometry x="234.95" y="-320" width="210" height="60" as="geometry" />
        </mxCell>
        <mxCell id="9caDIlOXdyggSRcv9oSJ-23" value="&lt;div&gt;E fields scaled to the reference&lt;br&gt; MTsite location&#39;s equivalent field level&lt;br&gt;&lt;/div&gt;(EarthModel.refmatchedEfields)" style="edgeStyle=orthogonalEdgeStyle;rounded=0;orthogonalLoop=1;jettySize=auto;html=1;entryX=0;entryY=0.5;entryDx=0;entryDy=0;" parent="1" source="9caDIlOXdyggSRcv9oSJ-24" target="9caDIlOXdyggSRcv9oSJ-26" edge="1">
          <mxGeometry relative="1" as="geometry" />
        </mxCell>
        <mxCell id="9caDIlOXdyggSRcv9oSJ-24" value="EarthModel.adjustEfieldsToMatch" style="rounded=0;whiteSpace=wrap;html=1;" parent="1" vertex="1">
          <mxGeometry x="694.95" y="-320" width="230" height="60" as="geometry" />
        </mxCell>
        <mxCell id="9caDIlOXdyggSRcv9oSJ-25" value="A log fit of the rates per year of the field level at &lt;br&gt;the reference site after scaling all the field levels&lt;br&gt;(earthmodel.combinedlogfits)" style="edgeStyle=orthogonalEdgeStyle;rounded=0;orthogonalLoop=1;jettySize=auto;html=1;entryX=0;entryY=0.25;entryDx=0;entryDy=0;" parent="1" source="9caDIlOXdyggSRcv9oSJ-26" target="9caDIlOXdyggSRcv9oSJ-8" edge="1">
          <mxGeometry relative="1" as="geometry">
            <Array as="points">
              <mxPoint x="1470" y="-290" />
              <mxPoint x="1470" y="-200" />
              <mxPoint x="650" y="-200" />
              <mxPoint x="650" y="-75" />
            </Array>
          </mxGeometry>
        </mxCell>
        <mxCell id="9caDIlOXdyggSRcv9oSJ-26" value="EarthModel.calcMatchedCombinedRates" style="rounded=0;whiteSpace=wrap;html=1;" parent="1" vertex="1">
          <mxGeometry x="1194.95" y="-320" width="230" height="60" as="geometry" />
        </mxCell>
        <mxCell id="9caDIlOXdyggSRcv9oSJ-27" style="edgeStyle=orthogonalEdgeStyle;rounded=0;orthogonalLoop=1;jettySize=auto;html=1;entryX=0;entryY=0.5;entryDx=0;entryDy=0;" parent="1" source="9caDIlOXdyggSRcv9oSJ-29" target="9caDIlOXdyggSRcv9oSJ-48" edge="1">
          <mxGeometry relative="1" as="geometry">
            <Array as="points">
              <mxPoint x="1455" y="210" />
              <mxPoint x="1455" y="360" />
              <mxPoint x="845" y="360" />
              <mxPoint x="845" y="460" />
            </Array>
          </mxGeometry>
        </mxCell>
        <mxCell id="9caDIlOXdyggSRcv9oSJ-28" value="GIC levels and straight line lengths&lt;br&gt; of the high voltage power lines&lt;br&gt;([gics,lineLengths]&lt;br&gt;saved as&lt;br&gt;gicsXXXperYear.npy" style="edgeLabel;html=1;align=center;verticalAlign=middle;resizable=0;points=[];" parent="9caDIlOXdyggSRcv9oSJ-27" connectable="0" vertex="1">
          <mxGeometry x="0.0449" y="-4" relative="1" as="geometry">
            <mxPoint x="36" as="offset" />
          </mxGeometry>
        </mxCell>
        <UserObject label="within Network.calcGICs:&lt;br&gt;&lt;div&gt;GIC_Model.runModel,&lt;/div&gt;&lt;div&gt;(uses GEOMAGICA)&lt;br&gt;&lt;/div&gt;" id="9caDIlOXdyggSRcv9oSJ-29">
          <mxCell style="rounded=0;whiteSpace=wrap;html=1;" parent="1" vertex="1">
            <mxGeometry x="1265" y="171" width="120" height="80" as="geometry" />
          </mxCell>
        </UserObject>
        <mxCell id="9caDIlOXdyggSRcv9oSJ-30" style="edgeStyle=orthogonalEdgeStyle;rounded=0;orthogonalLoop=1;jettySize=auto;html=1;entryX=0;entryY=0.5;entryDx=0;entryDy=0;" parent="1" source="9caDIlOXdyggSRcv9oSJ-33" target="9caDIlOXdyggSRcv9oSJ-41" edge="1">
          <mxGeometry relative="1" as="geometry">
            <Array as="points">
              <mxPoint x="525" y="180" />
              <mxPoint x="525" y="180" />
            </Array>
          </mxGeometry>
        </mxCell>
        <mxCell id="9caDIlOXdyggSRcv9oSJ-31" style="edgeStyle=orthogonalEdgeStyle;rounded=0;orthogonalLoop=1;jettySize=auto;html=1;entryX=0;entryY=0.5;entryDx=0;entryDy=0;" parent="1" source="9caDIlOXdyggSRcv9oSJ-33" target="9caDIlOXdyggSRcv9oSJ-38" edge="1">
          <mxGeometry relative="1" as="geometry">
            <Array as="points">
              <mxPoint x="865" y="245" />
            </Array>
          </mxGeometry>
        </mxCell>
        <mxCell id="9caDIlOXdyggSRcv9oSJ-32" value="power grid generators and high voltage line properties&lt;br&gt;(gens, conns)&lt;br&gt;" style="edgeLabel;html=1;align=center;verticalAlign=middle;resizable=0;points=[];" parent="9caDIlOXdyggSRcv9oSJ-31" connectable="0" vertex="1">
          <mxGeometry x="0.1804" y="3" relative="1" as="geometry">
            <mxPoint x="-73" as="offset" />
          </mxGeometry>
        </mxCell>
        <mxCell id="9caDIlOXdyggSRcv9oSJ-33" value="&lt;b&gt;Transnet Data Repo&lt;br&gt;(High voltage transformer locations and power grid voltages, grounding resistances, etc)&lt;br&gt;LOCATED OUTSIDE THE REPO - SEE README&lt;br&gt;&lt;/b&gt;" style="shape=cylinder3;whiteSpace=wrap;html=1;boundedLbl=1;backgroundOutline=1;size=15;" parent="1" vertex="1">
          <mxGeometry x="175" y="91" width="140" height="190" as="geometry" />
        </mxCell>
        <mxCell id="9caDIlOXdyggSRcv9oSJ-34" style="edgeStyle=orthogonalEdgeStyle;rounded=0;orthogonalLoop=1;jettySize=auto;html=1;entryX=0;entryY=0.75;entryDx=0;entryDy=0;" parent="1" source="9caDIlOXdyggSRcv9oSJ-38" target="9caDIlOXdyggSRcv9oSJ-29" edge="1">
          <mxGeometry relative="1" as="geometry" />
        </mxCell>
        <mxCell id="9caDIlOXdyggSRcv9oSJ-35" value="connsAndNodesPath" style="edgeLabel;html=1;align=center;verticalAlign=middle;resizable=0;points=[];" parent="9caDIlOXdyggSRcv9oSJ-34" connectable="0" vertex="1">
          <mxGeometry x="-0.0497" y="9" relative="1" as="geometry">
            <mxPoint y="1" as="offset" />
          </mxGeometry>
        </mxCell>
        <mxCell id="9caDIlOXdyggSRcv9oSJ-36" style="edgeStyle=orthogonalEdgeStyle;rounded=0;orthogonalLoop=1;jettySize=auto;html=1;exitX=1;exitY=0.75;exitDx=0;exitDy=0;entryX=0;entryY=0.75;entryDx=0;entryDy=0;" parent="1" source="9caDIlOXdyggSRcv9oSJ-38" target="9caDIlOXdyggSRcv9oSJ-48" edge="1">
          <mxGeometry relative="1" as="geometry">
            <Array as="points">
              <mxPoint x="1055" y="245" />
              <mxPoint x="1055" y="330" />
              <mxPoint x="665" y="330" />
              <mxPoint x="665" y="475" />
            </Array>
          </mxGeometry>
        </mxCell>
        <mxCell id="9caDIlOXdyggSRcv9oSJ-37" value="physical properties of transformers,&lt;br&gt;sorted by node index in the network&lt;br&gt;(network.sortedNodes)" style="edgeLabel;html=1;align=center;verticalAlign=middle;resizable=0;points=[];" parent="9caDIlOXdyggSRcv9oSJ-36" connectable="0" vertex="1">
          <mxGeometry x="0.6759" y="-6" relative="1" as="geometry">
            <mxPoint as="offset" />
          </mxGeometry>
        </mxCell>
        <mxCell id="9caDIlOXdyggSRcv9oSJ-38" value="Network.importnetwork" style="rounded=0;whiteSpace=wrap;html=1;" parent="1" vertex="1">
          <mxGeometry x="915" y="200" width="120" height="60" as="geometry" />
        </mxCell>
        <mxCell id="9caDIlOXdyggSRcv9oSJ-39" style="edgeStyle=orthogonalEdgeStyle;rounded=0;orthogonalLoop=1;jettySize=auto;html=1;entryX=0;entryY=0.25;entryDx=0;entryDy=0;" parent="1" source="9caDIlOXdyggSRcv9oSJ-41" target="9caDIlOXdyggSRcv9oSJ-38" edge="1">
          <mxGeometry relative="1" as="geometry">
            <mxPoint x="875.5" y="180" as="targetPoint" />
            <Array as="points">
              <mxPoint x="805" y="180" />
              <mxPoint x="805" y="215" />
            </Array>
          </mxGeometry>
        </mxCell>
        <mxCell id="9caDIlOXdyggSRcv9oSJ-40" value="network.nodesDict" style="edgeLabel;html=1;align=center;verticalAlign=middle;resizable=0;points=[];" parent="9caDIlOXdyggSRcv9oSJ-39" connectable="0" vertex="1">
          <mxGeometry x="-0.3904" relative="1" as="geometry">
            <mxPoint as="offset" />
          </mxGeometry>
        </mxCell>
        <mxCell id="9caDIlOXdyggSRcv9oSJ-41" value="Network.importNodes" style="rounded=0;whiteSpace=wrap;html=1;" parent="1" vertex="1">
          <mxGeometry x="574.5" y="150" width="120" height="60" as="geometry" />
        </mxCell>
        <mxCell id="9caDIlOXdyggSRcv9oSJ-42" style="edgeStyle=orthogonalEdgeStyle;rounded=0;orthogonalLoop=1;jettySize=auto;html=1;entryX=0;entryY=0.75;entryDx=0;entryDy=0;" parent="1" source="9caDIlOXdyggSRcv9oSJ-45" target="9caDIlOXdyggSRcv9oSJ-38" edge="1">
          <mxGeometry relative="1" as="geometry">
            <Array as="points">
              <mxPoint x="875" y="300" />
              <mxPoint x="875" y="245" />
            </Array>
          </mxGeometry>
        </mxCell>
        <mxCell id="9caDIlOXdyggSRcv9oSJ-43" value="Text" style="edgeLabel;html=1;align=center;verticalAlign=middle;resizable=0;points=[];" parent="9caDIlOXdyggSRcv9oSJ-42" connectable="0" vertex="1">
          <mxGeometry x="-0.0921" relative="1" as="geometry">
            <mxPoint x="-1" as="offset" />
          </mxGeometry>
        </mxCell>
        <mxCell id="9caDIlOXdyggSRcv9oSJ-44" value="Line resistance as a function of voltage&lt;br&gt;(lineResistances)" style="edgeLabel;html=1;align=center;verticalAlign=middle;resizable=0;points=[];" parent="9caDIlOXdyggSRcv9oSJ-42" connectable="0" vertex="1">
          <mxGeometry x="-0.0798" y="-2" relative="1" as="geometry">
            <mxPoint x="-1" as="offset" />
          </mxGeometry>
        </mxCell>
        <mxCell id="9caDIlOXdyggSRcv9oSJ-45" value="Network.__init__&lt;br&gt;" style="rounded=0;whiteSpace=wrap;html=1;" parent="1" vertex="1">
          <mxGeometry x="435" y="270" width="126" height="60" as="geometry" />
        </mxCell>
        <mxCell id="9caDIlOXdyggSRcv9oSJ-46" style="edgeStyle=orthogonalEdgeStyle;rounded=0;orthogonalLoop=1;jettySize=auto;html=1;entryX=0;entryY=0.5;entryDx=0;entryDy=0;" parent="1" source="9caDIlOXdyggSRcv9oSJ-48" target="9caDIlOXdyggSRcv9oSJ-53" edge="1">
          <mxGeometry relative="1" as="geometry">
            <Array as="points">
              <mxPoint x="1285" y="462" />
              <mxPoint x="1285" y="532" />
              <mxPoint x="435" y="532" />
              <mxPoint x="435" y="616" />
            </Array>
          </mxGeometry>
        </mxCell>
        <mxCell id="9caDIlOXdyggSRcv9oSJ-47" value="GIC, Duration" style="edgeLabel;html=1;align=center;verticalAlign=middle;resizable=0;points=[];" parent="9caDIlOXdyggSRcv9oSJ-46" connectable="0" vertex="1">
          <mxGeometry x="0.358" relative="1" as="geometry">
            <mxPoint as="offset" />
          </mxGeometry>
        </mxCell>
        <mxCell id="9caDIlOXdyggSRcv9oSJ-48" value="PowerGrid.calcTransformerFailures" style="rounded=0;whiteSpace=wrap;html=1;" parent="1" vertex="1">
          <mxGeometry x="905" y="432" width="320" height="60" as="geometry" />
        </mxCell>
        <mxCell id="9caDIlOXdyggSRcv9oSJ-49" style="edgeStyle=orthogonalEdgeStyle;rounded=0;orthogonalLoop=1;jettySize=auto;html=1;entryX=0;entryY=0.5;entryDx=0;entryDy=0;" parent="1" source="9caDIlOXdyggSRcv9oSJ-51" target="9caDIlOXdyggSRcv9oSJ-56" edge="1">
          <mxGeometry relative="1" as="geometry">
            <Array as="points">
              <mxPoint x="1350" y="617" />
              <mxPoint x="1350" y="707" />
              <mxPoint x="140" y="707" />
              <mxPoint x="140" y="840" />
            </Array>
          </mxGeometry>
        </mxCell>
        <mxCell id="9caDIlOXdyggSRcv9oSJ-50" value="Probability of failure of each transformer (node)&lt;br&gt;&lt;div&gt;PowerGrid.nodesDict now has additional property&lt;/div&gt;&lt;div&gt;&amp;nbsp;of &#39;probFail&#39; at a given rate per year&lt;/div&gt;&lt;br&gt;saved as &quot;analyzedNodes.npy&quot;" style="edgeLabel;html=1;align=center;verticalAlign=middle;resizable=0;points=[];" parent="9caDIlOXdyggSRcv9oSJ-49" connectable="0" vertex="1">
          <mxGeometry x="-0.6792" y="-5" relative="1" as="geometry">
            <mxPoint x="-1" as="offset" />
          </mxGeometry>
        </mxCell>
        <mxCell id="9caDIlOXdyggSRcv9oSJ-51" value="PowerGrid.calcProbabilityDamageFromGIC&lt;br&gt;NOTE: Some assumptions about&lt;br&gt; transformers are hardcoded here &lt;br&gt;in the code. GICperE from the notebook used here.as well as &quot;temprise&quot; from Params.ods" style="rounded=0;whiteSpace=wrap;html=1;" parent="1" vertex="1">
          <mxGeometry x="705" y="572" width="270" height="90" as="geometry" />
        </mxCell>
        <mxCell id="9caDIlOXdyggSRcv9oSJ-52" style="edgeStyle=orthogonalEdgeStyle;rounded=0;orthogonalLoop=1;jettySize=auto;html=1;entryX=0;entryY=0.5;entryDx=0;entryDy=0;" parent="1" source="9caDIlOXdyggSRcv9oSJ-53" target="9caDIlOXdyggSRcv9oSJ-51" edge="1">
          <mxGeometry relative="1" as="geometry" />
        </mxCell>
        <mxCell id="9caDIlOXdyggSRcv9oSJ-53" value="PowerGrid.calcTemp" style="rounded=0;whiteSpace=wrap;html=1;" parent="1" vertex="1">
          <mxGeometry x="454.5" y="586" width="120" height="60" as="geometry" />
        </mxCell>
        <mxCell id="9caDIlOXdyggSRcv9oSJ-54" style="edgeStyle=orthogonalEdgeStyle;rounded=0;orthogonalLoop=1;jettySize=auto;html=1;entryX=0;entryY=0.5;entryDx=0;entryDy=0;" parent="1" source="9caDIlOXdyggSRcv9oSJ-56" target="9caDIlOXdyggSRcv9oSJ-59" edge="1">
          <mxGeometry relative="1" as="geometry" />
        </mxCell>
        <mxCell id="9caDIlOXdyggSRcv9oSJ-55" value="location of Nodes,&lt;br&gt;rate per year of failure,&lt;br&gt;polygon boundaries&lt;br&gt;&amp;nbsp;of the regions/countries" style="edgeLabel;html=1;align=center;verticalAlign=middle;resizable=0;points=[];" parent="9caDIlOXdyggSRcv9oSJ-54" connectable="0" vertex="1">
          <mxGeometry x="-0.2615" y="1" relative="1" as="geometry">
            <mxPoint x="17" y="1" as="offset" />
          </mxGeometry>
        </mxCell>
        <mxCell id="9caDIlOXdyggSRcv9oSJ-56" value="PowerGrid.SplitIntoStationRegions" style="rounded=0;whiteSpace=wrap;html=1;" parent="1" vertex="1">
          <mxGeometry x="184.5" y="810" width="270" height="60" as="geometry" />
        </mxCell>
        <mxCell id="9caDIlOXdyggSRcv9oSJ-57" style="edgeStyle=orthogonalEdgeStyle;rounded=0;orthogonalLoop=1;jettySize=auto;html=1;entryX=0;entryY=0.5;entryDx=0;entryDy=0;" parent="1" source="9caDIlOXdyggSRcv9oSJ-59" target="9caDIlOXdyggSRcv9oSJ-62" edge="1">
          <mxGeometry relative="1" as="geometry" />
        </mxCell>
        <mxCell id="9caDIlOXdyggSRcv9oSJ-58" value="&lt;div&gt;Polygons representing regions for each node with&lt;/div&gt;&lt;div&gt;&amp;nbsp;the rate per year of CELE power failure&lt;/div&gt;&lt;div&gt;&amp;nbsp;in that region&lt;/div&gt;(allStationRegions)&lt;br&gt;(saved as allStationRegions.pkl)" style="edgeLabel;html=1;align=center;verticalAlign=middle;resizable=0;points=[];" parent="9caDIlOXdyggSRcv9oSJ-57" connectable="0" vertex="1">
          <mxGeometry x="-0.2479" y="-4" relative="1" as="geometry">
            <mxPoint x="36" y="-4" as="offset" />
          </mxGeometry>
        </mxCell>
        <mxCell id="9caDIlOXdyggSRcv9oSJ-59" value="Network.calcVoronoi" style="rounded=0;whiteSpace=wrap;html=1;" parent="1" vertex="1">
          <mxGeometry x="720" y="810" width="195" height="60" as="geometry" />
        </mxCell>
        <mxCell id="9caDIlOXdyggSRcv9oSJ-60" style="edgeStyle=orthogonalEdgeStyle;rounded=0;orthogonalLoop=1;jettySize=auto;html=1;entryX=0;entryY=0.25;entryDx=0;entryDy=0;" parent="1" target="9caDIlOXdyggSRcv9oSJ-64" edge="1">
          <mxGeometry relative="1" as="geometry">
            <mxPoint x="1465" y="859.9969230769228" as="sourcePoint" />
            <mxPoint x="590" y="1020.92" as="targetPoint" />
            <Array as="points">
              <mxPoint x="1465" y="840" />
              <mxPoint x="1500" y="840" />
              <mxPoint x="1500" y="920" />
              <mxPoint x="535" y="920" />
              <mxPoint x="535" y="1042" />
            </Array>
          </mxGeometry>
        </mxCell>
        <mxCell id="9caDIlOXdyggSRcv9oSJ-61" value="Combined all the countries/regions together with voronoi polygons representing power outage&lt;br&gt;(PowerGrid.combinedDF)" style="edgeLabel;html=1;align=center;verticalAlign=middle;resizable=0;points=[];" parent="9caDIlOXdyggSRcv9oSJ-60" connectable="0" vertex="1">
          <mxGeometry x="0.2537" y="-4" relative="1" as="geometry">
            <mxPoint x="-1" as="offset" />
          </mxGeometry>
        </mxCell>
        <mxCell id="9caDIlOXdyggSRcv9oSJ-62" value="PowerGrid.combineRegions" style="rounded=0;whiteSpace=wrap;html=1;" parent="1" vertex="1">
          <mxGeometry x="1285" y="810" width="180" height="60" as="geometry" />
        </mxCell>
        <mxCell id="9caDIlOXdyggSRcv9oSJ-63" style="edgeStyle=orthogonalEdgeStyle;rounded=0;orthogonalLoop=1;jettySize=auto;html=1;" parent="1" source="9caDIlOXdyggSRcv9oSJ-64" edge="1">
          <mxGeometry relative="1" as="geometry">
            <mxPoint x="1083" y="1056.5" as="targetPoint" />
          </mxGeometry>
        </mxCell>
        <mxCell id="9caDIlOXdyggSRcv9oSJ-64" value="PowerGrid.calcPopulationPowerOut" style="whiteSpace=wrap;html=1;fontStyle=0" parent="1" vertex="1">
          <mxGeometry x="595" y="1026.5" width="250" height="60" as="geometry" />
        </mxCell>
        <mxCell id="9caDIlOXdyggSRcv9oSJ-65" style="edgeStyle=orthogonalEdgeStyle;rounded=0;orthogonalLoop=1;jettySize=auto;html=1;entryX=0;entryY=0.75;entryDx=0;entryDy=0;" parent="1" source="9caDIlOXdyggSRcv9oSJ-67" target="9caDIlOXdyggSRcv9oSJ-64" edge="1">
          <mxGeometry relative="1" as="geometry" />
        </mxCell>
        <mxCell id="9caDIlOXdyggSRcv9oSJ-66" value="dataframe with population &lt;br&gt;&lt;div&gt;and land area&lt;/div&gt;&lt;div&gt;(populationpoints)&lt;br&gt;&lt;/div&gt;" style="edgeLabel;html=1;align=center;verticalAlign=middle;resizable=0;points=[];" parent="9caDIlOXdyggSRcv9oSJ-65" connectable="0" vertex="1">
          <mxGeometry x="-0.3792" y="-6" relative="1" as="geometry">
            <mxPoint x="28" y="-6" as="offset" />
          </mxGeometry>
        </mxCell>
        <mxCell id="9caDIlOXdyggSRcv9oSJ-67" value="rasterToDF" style="rounded=0;whiteSpace=wrap;html=1;" parent="1" vertex="1">
          <mxGeometry x="305" y="1041.5" width="120" height="60" as="geometry" />
        </mxCell>
        <mxCell id="9caDIlOXdyggSRcv9oSJ-68" style="edgeStyle=orthogonalEdgeStyle;rounded=0;orthogonalLoop=1;jettySize=auto;html=1;entryX=0;entryY=0.5;entryDx=0;entryDy=0;" parent="1" source="9caDIlOXdyggSRcv9oSJ-69" target="9caDIlOXdyggSRcv9oSJ-67" edge="1">
          <mxGeometry relative="1" as="geometry" />
        </mxCell>
        <mxCell id="9caDIlOXdyggSRcv9oSJ-69" value="landArea15min" style="shape=cylinder3;whiteSpace=wrap;html=1;boundedLbl=1;backgroundOutline=1;size=15;fontStyle=1" parent="1" vertex="1">
          <mxGeometry x="40" y="956.5" width="115" height="70" as="geometry" />
        </mxCell>
        <mxCell id="9caDIlOXdyggSRcv9oSJ-70" style="edgeStyle=orthogonalEdgeStyle;rounded=0;orthogonalLoop=1;jettySize=auto;html=1;entryX=0;entryY=0.75;entryDx=0;entryDy=0;" parent="1" source="9caDIlOXdyggSRcv9oSJ-71" target="9caDIlOXdyggSRcv9oSJ-67" edge="1">
          <mxGeometry relative="1" as="geometry" />
        </mxCell>
        <mxCell id="9caDIlOXdyggSRcv9oSJ-71" value="popDensity15min" style="shape=cylinder3;whiteSpace=wrap;html=1;boundedLbl=1;backgroundOutline=1;size=15;fontStyle=1" parent="1" vertex="1">
          <mxGeometry x="45" y="1086.5" width="150" height="80" as="geometry" />
        </mxCell>
        <mxCell id="9caDIlOXdyggSRcv9oSJ-72" style="edgeStyle=orthogonalEdgeStyle;rounded=0;orthogonalLoop=1;jettySize=auto;html=1;entryX=0;entryY=0.75;entryDx=0;entryDy=0;" parent="1" source="9caDIlOXdyggSRcv9oSJ-74" edge="1">
          <mxGeometry relative="1" as="geometry">
            <mxPoint x="1083" y="1071.5" as="targetPoint" />
            <Array as="points">
              <mxPoint x="1030" y="1177.5" />
              <mxPoint x="1030" y="1071.5" />
            </Array>
          </mxGeometry>
        </mxCell>
        <mxCell id="9caDIlOXdyggSRcv9oSJ-73" value="eleByCountry" style="edgeLabel;html=1;align=center;verticalAlign=middle;resizable=0;points=[];" parent="9caDIlOXdyggSRcv9oSJ-72" connectable="0" vertex="1">
          <mxGeometry x="-0.2312" y="-2" relative="1" as="geometry">
            <mxPoint x="46" y="-38" as="offset" />
          </mxGeometry>
        </mxCell>
        <mxCell id="9caDIlOXdyggSRcv9oSJ-74" value="&lt;b&gt;EleByCountry.csv&lt;br&gt;Electricity Consumption&lt;br&gt;&lt;/b&gt;" style="shape=cylinder3;whiteSpace=wrap;html=1;boundedLbl=1;backgroundOutline=1;size=15;" parent="1" vertex="1">
          <mxGeometry x="702" y="1137.5" width="150" height="80" as="geometry" />
        </mxCell>
        <mxCell id="9caDIlOXdyggSRcv9oSJ-75" value="calcElectricityAffected&lt;br&gt;&amp;nbsp;&amp;nbsp;&amp;nbsp;&amp;nbsp;&amp;nbsp;&amp;nbsp;&amp;nbsp;&amp;nbsp;&amp;nbsp;&amp;nbsp;&amp;nbsp;&amp;nbsp;&amp;nbsp;&amp;nbsp;&amp;nbsp; eleLost = eleconsumption * (countryCELEpop / countrypop)" style="whiteSpace=wrap;html=1;fontStyle=0" parent="1" vertex="1">
          <mxGeometry x="1083" y="1046.5" width="390" height="60" as="geometry" />
        </mxCell>
        <mxCell id="9caDIlOXdyggSRcv9oSJ-76" style="edgeStyle=orthogonalEdgeStyle;rounded=0;orthogonalLoop=1;jettySize=auto;html=1;entryX=0;entryY=0.5;entryDx=0;entryDy=0;" parent="1" source="9caDIlOXdyggSRcv9oSJ-77" target="9caDIlOXdyggSRcv9oSJ-97" edge="1">
          <mxGeometry relative="1" as="geometry" />
        </mxCell>
        <mxCell id="9caDIlOXdyggSRcv9oSJ-77" value="TF site: EMTF transfer function determined at nearby sites to the MTsites" style="shape=cylinder3;whiteSpace=wrap;html=1;boundedLbl=1;backgroundOutline=1;size=15;fontStyle=1" parent="1" vertex="1">
          <mxGeometry x="24.94" y="-1224" width="190" height="100" as="geometry" />
        </mxCell>
        <mxCell id="9caDIlOXdyggSRcv9oSJ-78" style="edgeStyle=orthogonalEdgeStyle;rounded=0;orthogonalLoop=1;jettySize=auto;html=1;" parent="1" source="9caDIlOXdyggSRcv9oSJ-79" target="9caDIlOXdyggSRcv9oSJ-102" edge="1">
          <mxGeometry relative="1" as="geometry" />
        </mxCell>
        <mxCell id="9caDIlOXdyggSRcv9oSJ-79" value="MT site data: 1min Time series magnetic field data over &amp;gt;20 years for each site &lt;br&gt;(at MTsite.mtsitefn)" style="shape=cylinder3;whiteSpace=wrap;html=1;boundedLbl=1;backgroundOutline=1;size=15;fontStyle=1" parent="1" vertex="1">
          <mxGeometry x="32.44" y="-734" width="142.5" height="130" as="geometry" />
        </mxCell>
        <mxCell id="9caDIlOXdyggSRcv9oSJ-80" value="" style="endArrow=classic;html=1;rounded=0;" parent="1" target="9caDIlOXdyggSRcv9oSJ-19" edge="1">
          <mxGeometry width="50" height="50" relative="1" as="geometry">
            <mxPoint x="989.94" y="-854" as="sourcePoint" />
            <mxPoint x="1039.94" y="-904" as="targetPoint" />
            <Array as="points" />
          </mxGeometry>
        </mxCell>
        <mxCell id="9caDIlOXdyggSRcv9oSJ-81" style="edgeStyle=orthogonalEdgeStyle;rounded=0;orthogonalLoop=1;jettySize=auto;html=1;entryX=0;entryY=0.5;entryDx=0;entryDy=0;" parent="1" source="9caDIlOXdyggSRcv9oSJ-82" target="9caDIlOXdyggSRcv9oSJ-85" edge="1">
          <mxGeometry relative="1" as="geometry" />
        </mxCell>
        <mxCell id="9caDIlOXdyggSRcv9oSJ-82" value="3D Global conductivity data (stored at Params.ods globalcondloc)" style="shape=cylinder3;whiteSpace=wrap;html=1;boundedLbl=1;backgroundOutline=1;size=15;fontStyle=1" parent="1" vertex="1">
          <mxGeometry x="-176.18" y="-115" width="120" height="130" as="geometry" />
        </mxCell>
        <mxCell id="9caDIlOXdyggSRcv9oSJ-83" style="edgeStyle=orthogonalEdgeStyle;rounded=0;orthogonalLoop=1;jettySize=auto;html=1;entryX=0;entryY=0.5;entryDx=0;entryDy=0;" parent="1" source="9caDIlOXdyggSRcv9oSJ-85" target="9caDIlOXdyggSRcv9oSJ-5" edge="1">
          <mxGeometry relative="1" as="geometry" />
        </mxCell>
        <mxCell id="9caDIlOXdyggSRcv9oSJ-84" value="2d apparent&lt;br&gt; conductivity map &lt;br&gt;&lt;br&gt;Location:Params.ods&lt;br&gt;apparentcondloc" style="edgeLabel;html=1;align=center;verticalAlign=middle;resizable=0;points=[];" parent="9caDIlOXdyggSRcv9oSJ-83" connectable="0" vertex="1">
          <mxGeometry x="-0.1406" y="-2" relative="1" as="geometry">
            <mxPoint x="2" as="offset" />
          </mxGeometry>
        </mxCell>
        <mxCell id="9caDIlOXdyggSRcv9oSJ-85" value="GCModel.getImpedance&lt;br&gt;(use 1/60 hz for frequency, and recursive impedance calculation to sum all Z layers)" style="rounded=0;whiteSpace=wrap;html=1;" parent="1" vertex="1">
          <mxGeometry x="92.82" y="-94" width="160" height="90" as="geometry" />
        </mxCell>
        <mxCell id="9caDIlOXdyggSRcv9oSJ-86" value="&lt;div&gt;FINAL&amp;nbsp;&lt;/div&gt;&lt;div&gt;RESULTS!&lt;/div&gt;" style="shape=switch;whiteSpace=wrap;html=1;fontStyle=1" parent="1" vertex="1">
          <mxGeometry x="2183" y="1001" width="180" height="119" as="geometry" />
        </mxCell>
        <mxCell id="9caDIlOXdyggSRcv9oSJ-87" style="edgeStyle=orthogonalEdgeStyle;rounded=0;orthogonalLoop=1;jettySize=auto;html=1;entryX=0.246;entryY=0.63;entryDx=0;entryDy=0;entryPerimeter=0;" parent="1" source="9caDIlOXdyggSRcv9oSJ-75" target="9caDIlOXdyggSRcv9oSJ-86" edge="1">
          <mxGeometry relative="1" as="geometry" />
        </mxCell>
        <mxCell id="9caDIlOXdyggSRcv9oSJ-89" style="edgeStyle=orthogonalEdgeStyle;rounded=0;orthogonalLoop=1;jettySize=auto;html=1;entryX=0;entryY=0.25;entryDx=0;entryDy=0;" parent="1" source="9caDIlOXdyggSRcv9oSJ-91" target="9caDIlOXdyggSRcv9oSJ-16" edge="1">
          <mxGeometry relative="1" as="geometry">
            <Array as="points">
              <mxPoint x="1010" y="-1134" />
              <mxPoint x="1010" y="-477" />
            </Array>
          </mxGeometry>
        </mxCell>
        <mxCell id="9caDIlOXdyggSRcv9oSJ-90" value="apparent conductivity as measured by the TFsite&lt;br&gt;(TFsite.apparentc)" style="edgeLabel;html=1;align=center;verticalAlign=middle;resizable=0;points=[];" parent="9caDIlOXdyggSRcv9oSJ-89" connectable="0" vertex="1">
          <mxGeometry x="-0.397" y="-1" relative="1" as="geometry">
            <mxPoint x="-130" y="-1" as="offset" />
          </mxGeometry>
        </mxCell>
        <mxCell id="9caDIlOXdyggSRcv9oSJ-91" value="TFsite.calcApparentc&lt;br&gt;(Frobenius norm)" style="whiteSpace=wrap;html=1;" parent="1" vertex="1">
          <mxGeometry x="439.44" y="-1164" width="120" height="60" as="geometry" />
        </mxCell>
        <mxCell id="9caDIlOXdyggSRcv9oSJ-92" style="edgeStyle=orthogonalEdgeStyle;rounded=0;orthogonalLoop=1;jettySize=auto;html=1;" parent="1" source="9caDIlOXdyggSRcv9oSJ-94" edge="1">
          <mxGeometry relative="1" as="geometry">
            <mxPoint x="139.94" y="-864" as="targetPoint" />
            <Array as="points">
              <mxPoint x="589.94" y="-1064" />
              <mxPoint x="589.94" y="-994" />
              <mxPoint x="79.94" y="-994" />
              <mxPoint x="79.94" y="-864" />
              <mxPoint x="134.94" y="-864" />
            </Array>
          </mxGeometry>
        </mxCell>
        <mxCell id="9caDIlOXdyggSRcv9oSJ-93" value="Apparent resistivity as measured by the TF Site&lt;br&gt;(TFsite.rhoXX,TFsite.rhoXY,TFsite.rhoYX,TFsite.rhoYY)" style="edgeLabel;html=1;align=center;verticalAlign=middle;resizable=0;points=[];" parent="9caDIlOXdyggSRcv9oSJ-92" connectable="0" vertex="1">
          <mxGeometry x="-0.2618" y="4" relative="1" as="geometry">
            <mxPoint x="1" as="offset" />
          </mxGeometry>
        </mxCell>
        <mxCell id="9caDIlOXdyggSRcv9oSJ-94" value="TFsite.calcApparentr" style="whiteSpace=wrap;html=1;" parent="1" vertex="1">
          <mxGeometry x="449.44" y="-1094" width="120" height="60" as="geometry" />
        </mxCell>
        <mxCell id="9caDIlOXdyggSRcv9oSJ-95" style="edgeStyle=orthogonalEdgeStyle;rounded=0;orthogonalLoop=1;jettySize=auto;html=1;exitX=1;exitY=0.25;exitDx=0;exitDy=0;entryX=0;entryY=0.5;entryDx=0;entryDy=0;" parent="1" source="9caDIlOXdyggSRcv9oSJ-97" target="9caDIlOXdyggSRcv9oSJ-91" edge="1">
          <mxGeometry relative="1" as="geometry" />
        </mxCell>
        <mxCell id="9caDIlOXdyggSRcv9oSJ-96" style="edgeStyle=orthogonalEdgeStyle;rounded=0;orthogonalLoop=1;jettySize=auto;html=1;exitX=1;exitY=0.75;exitDx=0;exitDy=0;entryX=0;entryY=0.5;entryDx=0;entryDy=0;" parent="1" source="9caDIlOXdyggSRcv9oSJ-97" target="9caDIlOXdyggSRcv9oSJ-94" edge="1">
          <mxGeometry relative="1" as="geometry" />
        </mxCell>
        <mxCell id="9caDIlOXdyggSRcv9oSJ-97" value="importsite" style="whiteSpace=wrap;html=1;" parent="1" vertex="1">
          <mxGeometry x="279.94" y="-1174" width="120" height="100" as="geometry" />
        </mxCell>
        <mxCell id="9caDIlOXdyggSRcv9oSJ-98" style="edgeStyle=orthogonalEdgeStyle;rounded=0;orthogonalLoop=1;jettySize=auto;html=1;" parent="1" source="9caDIlOXdyggSRcv9oSJ-99" target="9caDIlOXdyggSRcv9oSJ-11" edge="1">
          <mxGeometry relative="1" as="geometry" />
        </mxCell>
        <mxCell id="9caDIlOXdyggSRcv9oSJ-99" value="EarthModel.calcChunkEfields" style="whiteSpace=wrap;html=1;" parent="1" vertex="1">
          <mxGeometry x="137.44" y="-894" width="185" height="60" as="geometry" />
        </mxCell>
        <mxCell id="9caDIlOXdyggSRcv9oSJ-100" style="edgeStyle=orthogonalEdgeStyle;rounded=0;orthogonalLoop=1;jettySize=auto;html=1;exitX=0.5;exitY=1;exitDx=0;exitDy=0;" parent="1" source="9caDIlOXdyggSRcv9oSJ-99" target="9caDIlOXdyggSRcv9oSJ-99" edge="1">
          <mxGeometry relative="1" as="geometry" />
        </mxCell>
        <mxCell id="9caDIlOXdyggSRcv9oSJ-101" style="edgeStyle=orthogonalEdgeStyle;rounded=0;orthogonalLoop=1;jettySize=auto;html=1;entryX=0;entryY=0.5;entryDx=0;entryDy=0;" parent="1" source="9caDIlOXdyggSRcv9oSJ-102" target="9caDIlOXdyggSRcv9oSJ-105" edge="1">
          <mxGeometry relative="1" as="geometry" />
        </mxCell>
        <mxCell id="9caDIlOXdyggSRcv9oSJ-102" value="importSite" style="whiteSpace=wrap;html=1;" parent="1" vertex="1">
          <mxGeometry x="249.94" y="-734" width="120" height="60" as="geometry" />
        </mxCell>
        <mxCell id="9caDIlOXdyggSRcv9oSJ-103" style="edgeStyle=orthogonalEdgeStyle;rounded=0;orthogonalLoop=1;jettySize=auto;html=1;entryX=0;entryY=0.75;entryDx=0;entryDy=0;" parent="1" source="9caDIlOXdyggSRcv9oSJ-105" target="9caDIlOXdyggSRcv9oSJ-99" edge="1">
          <mxGeometry relative="1" as="geometry">
            <Array as="points">
              <mxPoint x="730" y="-704" />
              <mxPoint x="730" y="-770" />
              <mxPoint x="20" y="-770" />
              <mxPoint x="20" y="-849" />
            </Array>
          </mxGeometry>
        </mxCell>
        <mxCell id="9caDIlOXdyggSRcv9oSJ-104" value="polyFitFunEW, polyFitFunNS" style="edgeLabel;html=1;align=center;verticalAlign=middle;resizable=0;points=[];" parent="9caDIlOXdyggSRcv9oSJ-103" connectable="0" vertex="1">
          <mxGeometry x="0.0544" y="3" relative="1" as="geometry">
            <mxPoint y="5" as="offset" />
          </mxGeometry>
        </mxCell>
        <mxCell id="9caDIlOXdyggSRcv9oSJ-105" value="MTsite.calcPolyFit&amp;nbsp;&amp;nbsp;&lt;br&gt;(calculate 2nd order polynomial fits to NS and EW B field data)" style="whiteSpace=wrap;html=1;" parent="1" vertex="1">
          <mxGeometry x="439.44" y="-734" width="210.5" height="60" as="geometry" />
        </mxCell>
        <mxCell id="9caDIlOXdyggSRcv9oSJ-106" value="HOW TO READ THIS FLOW CHART:&lt;br&gt;&lt;br&gt;Raw data sources: Cylinders &lt;br&gt;&lt;div&gt;&lt;br&gt;&lt;/div&gt;&lt;div&gt;&lt;br&gt;&lt;/div&gt;&lt;div&gt;&lt;br&gt;&lt;/div&gt;&lt;div&gt;Python functions: Rectangles&lt;br&gt;&lt;/div&gt;&lt;div&gt;&lt;br&gt;&lt;/div&gt;&lt;div&gt;&lt;br&gt;&lt;/div&gt;&lt;div&gt;Lines with description: data passed between functions&lt;br&gt;&lt;/div&gt;" style="ellipse;shape=cloud;whiteSpace=wrap;html=1;" parent="1" vertex="1">
          <mxGeometry x="240" y="-1570" width="490" height="330" as="geometry" />
        </mxCell>
        <mxCell id="9caDIlOXdyggSRcv9oSJ-107" value="data" style="shape=cylinder3;whiteSpace=wrap;html=1;boundedLbl=1;backgroundOutline=1;size=15;" parent="1" vertex="1">
          <mxGeometry x="569.44" y="-1460" width="40" height="40" as="geometry" />
        </mxCell>
        <mxCell id="9caDIlOXdyggSRcv9oSJ-108" value="function" style="rounded=0;whiteSpace=wrap;html=1;" parent="1" vertex="1">
          <mxGeometry x="576.94" y="-1390" width="53" height="30" as="geometry" />
        </mxCell>
        <mxCell id="9caDIlOXdyggSRcv9oSJ-109" value="variables &lt;br&gt;or saved data&lt;br&gt;(class.variablename)" style="endArrow=classic;html=1;rounded=0;" parent="1" edge="1">
          <mxGeometry width="50" height="50" relative="1" as="geometry">
            <mxPoint x="404.94" y="-1310" as="sourcePoint" />
            <mxPoint x="634.94" y="-1310" as="targetPoint" />
          </mxGeometry>
        </mxCell>
        <mxCell id="9caDIlOXdyggSRcv9oSJ-111" value="&lt;font style=&quot;font-size: 24px;&quot;&gt;Estimating Effects of Transformer Failure on the Population and Electricity Grid&lt;/font&gt;" style="text;html=1;strokeColor=none;fillColor=none;align=center;verticalAlign=middle;whiteSpace=wrap;rounded=0;" parent="1" vertex="1">
          <mxGeometry x="1685" y="780" width="350" height="90" as="geometry" />
        </mxCell>
        <mxCell id="9caDIlOXdyggSRcv9oSJ-112" value="&lt;p id=&quot;docs-internal-guid-943b42af-7fff-5a61-73d2-78b0df983e70&quot; style=&quot;line-height: 1.2; text-indent: 36pt; margin-top: 12pt; margin-bottom: 6pt; font-size: 24px;&quot; dir=&quot;ltr&quot;&gt;&lt;font style=&quot;font-size: 24px;&quot;&gt;Estimating GIC and Transformer Overheating in the High Voltage Power Distribution Network&lt;/font&gt;&lt;/p&gt;" style="text;html=1;strokeColor=none;fillColor=none;align=center;verticalAlign=middle;whiteSpace=wrap;rounded=0;" parent="1" vertex="1">
          <mxGeometry x="1665" y="100" width="350" height="90" as="geometry" />
        </mxCell>
        <mxCell id="9caDIlOXdyggSRcv9oSJ-113" value="&lt;div align=&quot;center&quot;&gt;&lt;font style=&quot;font-size: 24px;&quot;&gt;Estimating Geoelectric Fields for Severe Storm&lt;/font&gt;&lt;br&gt;&lt;/div&gt;" style="text;html=1;strokeColor=none;fillColor=none;align=center;verticalAlign=middle;whiteSpace=wrap;rounded=0;" parent="1" vertex="1">
          <mxGeometry x="1540" y="-1120" width="350" height="90" as="geometry" />
        </mxCell>
        <mxCell id="9caDIlOXdyggSRcv9oSJ-115" value="" style="swimlane;startSize=0;dashed=1;dashPattern=12 12;" parent="1" vertex="1">
          <mxGeometry x="9.94" y="-1244" width="940" height="310" as="geometry" />
        </mxCell>
        <mxCell id="9caDIlOXdyggSRcv9oSJ-117" value="" style="swimlane;startSize=0;dashed=1;dashPattern=12 12;" parent="1" vertex="1">
          <mxGeometry x="9.94" y="-1244" width="940" height="310" as="geometry" />
        </mxCell>
        <mxCell id="AwBOlusgZ-eaemERiSeo-18" value="&lt;b&gt;Estimate Apparent Conductivity and Resistivity at TF Sites&lt;br&gt;&lt;/b&gt;" style="text;whiteSpace=wrap;html=1;" vertex="1" parent="9caDIlOXdyggSRcv9oSJ-117">
          <mxGeometry x="580" y="14" width="350" height="40" as="geometry" />
        </mxCell>
        <mxCell id="9caDIlOXdyggSRcv9oSJ-120" value="" style="swimlane;startSize=0;dashed=1;dashPattern=12 12;" parent="1" vertex="1">
          <mxGeometry x="-20" y="-780" width="799.94" height="190" as="geometry" />
        </mxCell>
        <mxCell id="AwBOlusgZ-eaemERiSeo-17" value="&lt;b&gt;Estimate Historical B Field Levels&lt;br&gt;&lt;/b&gt;" style="text;whiteSpace=wrap;html=1;" vertex="1" parent="9caDIlOXdyggSRcv9oSJ-120">
          <mxGeometry x="560" y="136" width="225.85" height="40" as="geometry" />
        </mxCell>
        <mxCell id="9caDIlOXdyggSRcv9oSJ-121" value="" style="swimlane;startSize=0;dashed=1;dashPattern=12 12;" parent="1" vertex="1">
          <mxGeometry x="60" y="-924" width="1860" height="124" as="geometry" />
        </mxCell>
        <mxCell id="AwBOlusgZ-eaemERiSeo-19" value="&lt;b&gt;Calculate E field and Rates of Recurrence&lt;br&gt;&lt;/b&gt;" style="text;whiteSpace=wrap;html=1;" vertex="1" parent="9caDIlOXdyggSRcv9oSJ-121">
          <mxGeometry x="1625" y="42" width="175.03" height="40" as="geometry" />
        </mxCell>
        <mxCell id="9caDIlOXdyggSRcv9oSJ-124" value="" style="swimlane;startSize=0;dashed=1;dashPattern=12 12;" parent="1" vertex="1">
          <mxGeometry x="79.97" y="-540" width="1469.22" height="380" as="geometry" />
        </mxCell>
        <mxCell id="AwBOlusgZ-eaemERiSeo-16" value="&lt;b&gt;Adjust E Field Levels to Equivalent Field at a Single Location and Find Logfit&lt;br&gt;&lt;/b&gt;" style="text;whiteSpace=wrap;html=1;" vertex="1" parent="9caDIlOXdyggSRcv9oSJ-124">
          <mxGeometry x="235.03" y="40" width="244.97" height="40" as="geometry" />
        </mxCell>
        <mxCell id="9caDIlOXdyggSRcv9oSJ-125" value="" style="swimlane;startSize=0;dashed=1;dashPattern=12 12;" parent="1" vertex="1">
          <mxGeometry x="-239.19" y="-140" width="1779.19" height="190" as="geometry" />
        </mxCell>
        <mxCell id="AwBOlusgZ-eaemERiSeo-15" value="&lt;b&gt;Estimate Gridded E field Levels for Each Country&lt;br&gt;&lt;/b&gt;" style="text;whiteSpace=wrap;html=1;" vertex="1" parent="9caDIlOXdyggSRcv9oSJ-125">
          <mxGeometry x="1549.19" y="60" width="209.19" height="40" as="geometry" />
        </mxCell>
        <mxCell id="AwBOlusgZ-eaemERiSeo-1" value="" style="swimlane;startSize=0;dashed=1;dashPattern=12 12;" vertex="1" parent="1">
          <mxGeometry x="190" y="425" width="1650" height="260" as="geometry" />
        </mxCell>
        <mxCell id="AwBOlusgZ-eaemERiSeo-13" value="&lt;b&gt;Probability of Transformer Overheating Failure&lt;br&gt;&lt;/b&gt;" style="text;html=1;strokeColor=none;fillColor=none;align=center;verticalAlign=middle;whiteSpace=wrap;rounded=0;" vertex="1" parent="AwBOlusgZ-eaemERiSeo-1">
          <mxGeometry x="80" y="22" width="220" height="30" as="geometry" />
        </mxCell>
        <mxCell id="AwBOlusgZ-eaemERiSeo-2" value="" style="swimlane;startSize=0;dashed=1;dashPattern=12 12;" vertex="1" parent="1">
          <mxGeometry x="92.82" y="80" width="1567.18" height="340" as="geometry" />
        </mxCell>
        <mxCell id="AwBOlusgZ-eaemERiSeo-3" style="edgeStyle=orthogonalEdgeStyle;rounded=0;orthogonalLoop=1;jettySize=auto;html=1;exitX=1;exitY=0.25;exitDx=0;exitDy=0;entryX=0.228;entryY=0.338;entryDx=0;entryDy=0;entryPerimeter=0;" edge="1" parent="1" source="9caDIlOXdyggSRcv9oSJ-64" target="9caDIlOXdyggSRcv9oSJ-86">
          <mxGeometry relative="1" as="geometry" />
        </mxCell>
        <mxCell id="AwBOlusgZ-eaemERiSeo-4" value="" style="swimlane;startSize=0;dashed=1;dashPattern=12 12;" vertex="1" parent="1">
          <mxGeometry x="-130" y="946.5" width="1775" height="283.5" as="geometry" />
        </mxCell>
        <mxCell id="AwBOlusgZ-eaemERiSeo-10" value="" style="swimlane;startSize=0;dashed=1;dashPattern=12 12;" vertex="1" parent="1">
          <mxGeometry x="-130" y="762.5" width="1776" height="167.5" as="geometry" />
        </mxCell>
        <mxCell id="AwBOlusgZ-eaemERiSeo-11" value="Determine Outage Regions" style="text;html=1;strokeColor=none;fillColor=none;align=center;verticalAlign=middle;whiteSpace=wrap;rounded=0;fontStyle=1" vertex="1" parent="AwBOlusgZ-eaemERiSeo-10">
          <mxGeometry x="20" y="17.5" width="180" height="30" as="geometry" />
        </mxCell>
        <mxCell id="AwBOlusgZ-eaemERiSeo-12" value="Determine Population and Electricity Effected" style="text;html=1;strokeColor=none;fillColor=none;align=center;verticalAlign=middle;whiteSpace=wrap;rounded=0;fontStyle=1" vertex="1" parent="1">
          <mxGeometry x="-120" y="1187.5" width="180" height="30" as="geometry" />
        </mxCell>
        <mxCell id="AwBOlusgZ-eaemERiSeo-14" value="&lt;b&gt;Determine Probable GIC Levels and Transformer Properties&lt;br&gt;&lt;/b&gt;" style="text;html=1;strokeColor=none;fillColor=none;align=center;verticalAlign=middle;whiteSpace=wrap;rounded=0;" vertex="1" parent="1">
          <mxGeometry x="1390" y="91" width="160" height="39" as="geometry" />
        </mxCell>
      </root>
    </mxGraphModel>
  </diagram>
</mxfile>
